<?xml version="1.0" standalone="no"?>
<!DOCTYPE svg PUBLIC "-//W3C//DTD SVG 20010904//EN"
 "http://www.w3.org/TR/2001/REC-SVG-20010904/DTD/svg10.dtd">
<svg version="1.0" xmlns="http://www.w3.org/2000/svg"
 width="645.000000pt" height="645.000000pt" viewBox="0 0 645.000000 645.000000"
 preserveAspectRatio="xMidYMid meet">
<metadata>
Created by potrace 1.14, written by Peter Selinger 2001-2017
</metadata>
<g transform="translate(0.000000,645.000000) scale(0.100000,-0.100000)"
fill="#000000" stroke="none">
<path d="M2659 5766 c-2 -2 -38 -6 -79 -10 -41 -3 -84 -8 -95 -10 -11 -2 -45
-7 -75 -11 -165 -21 -479 -109 -645 -180 -195 -84 -406 -201 -550 -305 l-96
-70 -158 0 c-87 0 -172 -5 -189 -11 -42 -14 -82 -69 -81 -111 0 -18 13 -76 28
-128 l28 -95 -57 -68 c-390 -463 -612 -1055 -613 -1632 -1 -89 9 -258 17 -303
2 -9 7 -39 10 -67 27 -186 102 -417 203 -625 85 -174 168 -305 286 -454 84
-105 284 -310 353 -362 21 -16 44 -33 50 -39 6 -5 36 -28 67 -50 31 -22 56
-44 57 -49 0 -5 -3 -7 -6 -4 -3 3 -20 2 -37 -3 -18 -4 -48 -11 -67 -14 -19 -3
-63 -12 -98 -20 -34 -8 -77 -17 -95 -20 -68 -12 -343 -87 -383 -105 -64 -28
-74 -85 -22 -123 l27 -20 193 51 c167 44 413 99 528 117 19 3 58 10 87 16 51
10 53 9 145 -40 336 -180 585 -260 1047 -336 165 -28 658 -27 801 1 14 2 39 6
55 8 180 23 479 101 655 170 52 21 166 73 252 116 l157 78 133 -23 c73 -13
180 -33 238 -45 58 -12 119 -24 135 -27 17 -2 64 -13 105 -23 41 -10 86 -21
100 -24 14 -3 60 -13 102 -23 l77 -17 26 24 c50 47 28 103 -48 125 -54 15
-343 84 -387 91 -14 3 -68 13 -120 24 -52 11 -113 22 -135 26 -22 3 -41 7 -43
9 -2 1 21 20 50 41 61 45 67 50 168 135 378 321 653 756 775 1223 26 103 27
109 45 218 27 176 31 511 5 608 -2 8 -6 35 -9 60 -24 184 -105 470 -187 660
-49 113 -132 266 -201 373 l-72 110 88 261 c49 144 103 293 122 331 36 77 102
148 174 187 85 47 131 52 495 54 187 1 348 2 358 3 10 0 32 14 48 30 56 57 29
158 -47 177 -31 8 -626 9 -714 1 -84 -7 -186 -36 -220 -62 -8 -6 -27 -17 -41
-24 -44 -22 -128 -95 -174 -151 -60 -73 -91 -143 -176 -389 l-73 -214 -74 78
c-40 44 -83 99 -95 124 -22 45 -47 65 -97 75 -14 3 -39 18 -55 33 -34 31 -156
124 -225 170 -167 113 -394 230 -589 303 -140 53 -430 130 -546 145 -11 2 -42
6 -70 9 -27 4 -66 9 -85 12 -39 6 -456 15 -461 10z"/>
</g>
</svg>
